<svg xmlns="http://www.w3.org/2000/svg" width="1024" height="500" viewBox="0 0 1024 500">
  
  <defs>
    <radialGradient id="sky" cx="50%" cy="40%" r="80%">
      <stop offset="0%" stop-color="#2c2866"/>
      <stop offset="55%" stop-color="#181538"/>
      <stop offset="100%" stop-color="#0b0a1e"/>
    </radialGradient>
    <radialGradient id="planet" cx="38%" cy="32%" r="80%">
      <stop offset="0%" stop-color="#8fe39a"/>
      <stop offset="60%" stop-color="#52b06a"/>
      <stop offset="100%" stop-color="#2f7d49"/>
    </radialGradient>
    <radialGradient id="glow" cx="50%" cy="50%" r="50%">
      <stop offset="0%" stop-color="#ffcf56" stop-opacity="0.5"/>
      <stop offset="100%" stop-color="#ffcf56" stop-opacity="0"/>
    </radialGradient>
    <linearGradient id="title" x1="0" y1="0" x2="0" y2="1">
      <stop offset="0%" stop-color="#fff7e0"/>
      <stop offset="100%" stop-color="#ffcf56"/>
    </linearGradient>
  </defs>
  <rect width="1024" height="500" fill="url(#sky)"/>
  <circle cx="12.0" cy="31.0" r="1.86" fill="#fff" opacity="0.79"/><circle cx="534.0" cy="202.8" r="1.05" fill="#fff" opacity="0.47"/><circle cx="566.6" cy="364.9" r="0.71" fill="#fff" opacity="0.41"/><circle cx="782.4" cy="259.2" r="0.62" fill="#fff" opacity="0.56"/><circle cx="300.3" cy="267.4" r="0.77" fill="#fff" opacity="0.98"/><circle cx="253.5" cy="438.9" r="0.61" fill="#fff" opacity="0.40"/><circle cx="158.4" cy="145.5" r="1.18" fill="#fff" opacity="0.83"/><circle cx="76.3" cy="456.5" r="1.19" fill="#fff" opacity="0.74"/><circle cx="696.4" cy="483.0" r="1.30" fill="#fff" opacity="0.94"/><circle cx="847.5" cy="20.0" r="0.58" fill="#fff" opacity="0.55"/><circle cx="435.5" cy="10.1" r="0.44" fill="#fff" opacity="0.84"/><circle cx="377.8" cy="213.4" r="1.05" fill="#fff" opacity="0.96"/><circle cx="720.2" cy="344.1" r="0.83" fill="#fff" opacity="0.55"/><circle cx="142.1" cy="66.6" r="1.76" fill="#fff" opacity="0.53"/><circle cx="194.9" cy="316.1" r="0.84" fill="#fff" opacity="0.33"/><circle cx="700.7" cy="460.7" r="1.18" fill="#fff" opacity="0.88"/><circle cx="671.0" cy="459.9" r="0.49" fill="#fff" opacity="0.67"/><circle cx="664.7" cy="445.5" r="1.84" fill="#fff" opacity="0.89"/><circle cx="608.5" cy="481.9" r="1.85" fill="#fff" opacity="0.68"/><circle cx="838.2" cy="2.8" r="1.13" fill="#fff" opacity="0.53"/><circle cx="741.7" cy="274.7" r="1.51" fill="#fff" opacity="0.98"/><circle cx="570.9" cy="411.6" r="0.99" fill="#fff" opacity="0.75"/><circle cx="756.3" cy="275.8" r="0.80" fill="#fff" opacity="0.47"/><circle cx="9.5" cy="12.0" r="1.81" fill="#fff" opacity="0.88"/><circle cx="645.7" cy="7.2" r="1.29" fill="#fff" opacity="0.72"/><circle cx="734.1" cy="497.4" r="0.74" fill="#fff" opacity="0.99"/><circle cx="665.6" cy="402.5" r="1.30" fill="#fff" opacity="0.88"/><circle cx="142.4" cy="497.1" r="1.11" fill="#fff" opacity="0.70"/><circle cx="164.7" cy="198.1" r="0.64" fill="#fff" opacity="0.87"/><circle cx="882.2" cy="368.0" r="1.35" fill="#fff" opacity="0.99"/><circle cx="623.9" cy="368.2" r="1.83" fill="#fff" opacity="0.64"/><circle cx="235.3" cy="292.0" r="1.57" fill="#fff" opacity="0.90"/><circle cx="194.5" cy="277.4" r="1.06" fill="#fff" opacity="0.67"/><circle cx="184.5" cy="125.3" r="1.00" fill="#fff" opacity="0.63"/><circle cx="174.9" cy="1.6" r="0.58" fill="#fff" opacity="0.32"/><circle cx="109.8" cy="438.2" r="1.87" fill="#fff" opacity="0.34"/><circle cx="178.6" cy="202.5" r="1.10" fill="#fff" opacity="0.81"/><circle cx="377.1" cy="180.0" r="1.57" fill="#fff" opacity="0.80"/><circle cx="819.3" cy="265.0" r="1.58" fill="#fff" opacity="0.59"/><circle cx="576.1" cy="146.3" r="1.14" fill="#fff" opacity="0.84"/><circle cx="81.9" cy="126.1" r="1.62" fill="#fff" opacity="0.88"/><circle cx="793.3" cy="214.9" r="0.87" fill="#fff" opacity="0.94"/><circle cx="257.4" cy="180.7" r="1.06" fill="#fff" opacity="0.88"/><circle cx="413.7" cy="487.3" r="1.18" fill="#fff" opacity="0.61"/><circle cx="346.7" cy="268.5" r="0.77" fill="#fff" opacity="0.92"/><circle cx="586.0" cy="493.0" r="1.65" fill="#fff" opacity="0.65"/><circle cx="447.3" cy="348.8" r="1.79" fill="#fff" opacity="0.69"/><circle cx="673.1" cy="81.2" r="1.41" fill="#fff" opacity="0.57"/><circle cx="624.3" cy="428.0" r="0.91" fill="#fff" opacity="0.51"/><circle cx="92.7" cy="341.7" r="1.47" fill="#fff" opacity="0.98"/><circle cx="325.0" cy="129.8" r="0.41" fill="#fff" opacity="0.80"/><circle cx="948.4" cy="392.1" r="1.63" fill="#fff" opacity="0.97"/><circle cx="231.9" cy="489.4" r="0.75" fill="#fff" opacity="0.68"/><circle cx="400.5" cy="356.8" r="1.52" fill="#fff" opacity="0.74"/><circle cx="742.9" cy="310.8" r="1.25" fill="#fff" opacity="0.49"/><circle cx="851.9" cy="241.3" r="0.52" fill="#fff" opacity="0.81"/><circle cx="475.0" cy="279.8" r="1.18" fill="#fff" opacity="0.92"/><circle cx="975.9" cy="76.6" r="0.46" fill="#fff" opacity="0.50"/><circle cx="536.4" cy="196.4" r="1.76" fill="#fff" opacity="0.90"/><circle cx="542.8" cy="454.0" r="0.75" fill="#fff" opacity="0.65"/><circle cx="948.2" cy="338.0" r="1.57" fill="#fff" opacity="0.53"/><circle cx="931.4" cy="484.8" r="1.65" fill="#fff" opacity="0.30"/><circle cx="171.5" cy="376.3" r="0.47" fill="#fff" opacity="0.36"/><circle cx="933.7" cy="135.6" r="1.24" fill="#fff" opacity="0.48"/><circle cx="813.0" cy="359.8" r="0.39" fill="#fff" opacity="0.61"/><circle cx="1003.0" cy="41.2" r="0.44" fill="#fff" opacity="0.57"/><circle cx="808.2" cy="345.7" r="0.74" fill="#fff" opacity="0.65"/><circle cx="108.9" cy="241.3" r="1.00" fill="#fff" opacity="0.68"/><circle cx="172.0" cy="386.1" r="0.79" fill="#fff" opacity="0.78"/><circle cx="852.5" cy="18.5" r="0.59" fill="#fff" opacity="0.80"/><circle cx="914.4" cy="140.9" r="1.64" fill="#fff" opacity="0.75"/><circle cx="330.2" cy="47.4" r="0.47" fill="#fff" opacity="0.99"/><circle cx="710.1" cy="128.9" r="1.13" fill="#fff" opacity="0.35"/><circle cx="528.3" cy="213.2" r="1.55" fill="#fff" opacity="0.41"/><circle cx="758.9" cy="85.2" r="0.68" fill="#fff" opacity="0.44"/><circle cx="901.5" cy="15.4" r="0.35" fill="#fff" opacity="0.96"/><circle cx="943.2" cy="241.9" r="1.22" fill="#fff" opacity="0.79"/><circle cx="174.8" cy="259.0" r="0.42" fill="#fff" opacity="0.72"/><circle cx="738.8" cy="422.6" r="0.41" fill="#fff" opacity="0.70"/><circle cx="379.3" cy="27.9" r="1.77" fill="#fff" opacity="0.49"/><circle cx="159.0" cy="141.8" r="0.86" fill="#fff" opacity="0.86"/><circle cx="843.4" cy="433.0" r="1.54" fill="#fff" opacity="0.80"/><circle cx="885.5" cy="318.8" r="1.42" fill="#fff" opacity="0.78"/><circle cx="316.1" cy="201.7" r="1.36" fill="#fff" opacity="0.53"/><circle cx="247.5" cy="248.3" r="1.26" fill="#fff" opacity="0.77"/><circle cx="436.8" cy="355.6" r="0.69" fill="#fff" opacity="0.82"/><circle cx="532.0" cy="220.1" r="0.93" fill="#fff" opacity="0.87"/><circle cx="127.6" cy="276.9" r="1.16" fill="#fff" opacity="0.76"/><circle cx="642.1" cy="38.9" r="0.97" fill="#fff" opacity="0.96"/><circle cx="729.4" cy="255.9" r="1.41" fill="#fff" opacity="0.52"/><circle cx="999.1" cy="31.5" r="1.52" fill="#fff" opacity="0.61"/><circle cx="229.9" cy="246.1" r="0.66" fill="#fff" opacity="0.90"/><circle cx="1023.7" cy="267.3" r="1.81" fill="#fff" opacity="0.42"/><circle cx="493.2" cy="87.0" r="0.37" fill="#fff" opacity="0.79"/><circle cx="780.8" cy="108.0" r="0.31" fill="#fff" opacity="0.64"/><circle cx="680.9" cy="156.0" r="1.16" fill="#fff" opacity="0.96"/><circle cx="301.0" cy="275.6" r="1.41" fill="#fff" opacity="0.51"/><circle cx="106.4" cy="317.3" r="0.49" fill="#fff" opacity="0.68"/><circle cx="464.3" cy="336.0" r="1.61" fill="#fff" opacity="0.82"/><circle cx="588.8" cy="388.5" r="1.14" fill="#fff" opacity="0.83"/><circle cx="628.4" cy="307.5" r="1.26" fill="#fff" opacity="0.77"/><circle cx="782.0" cy="361.1" r="1.70" fill="#fff" opacity="0.90"/><circle cx="690.9" cy="313.4" r="0.54" fill="#fff" opacity="0.48"/><circle cx="1018.1" cy="101.7" r="1.75" fill="#fff" opacity="0.33"/><circle cx="765.1" cy="259.3" r="1.62" fill="#fff" opacity="0.49"/><circle cx="187.4" cy="163.6" r="1.42" fill="#fff" opacity="0.75"/><circle cx="336.1" cy="53.9" r="0.80" fill="#fff" opacity="0.96"/><circle cx="96.9" cy="75.6" r="0.71" fill="#fff" opacity="0.81"/><circle cx="0.5" cy="357.1" r="0.31" fill="#fff" opacity="0.98"/><circle cx="520.0" cy="485.7" r="1.27" fill="#fff" opacity="0.57"/><circle cx="788.7" cy="137.5" r="0.89" fill="#fff" opacity="0.76"/><circle cx="783.4" cy="269.8" r="1.48" fill="#fff" opacity="0.57"/><circle cx="628.9" cy="123.1" r="0.40" fill="#fff" opacity="0.58"/><circle cx="230.5" cy="381.2" r="0.56" fill="#fff" opacity="0.53"/><circle cx="99.9" cy="167.4" r="1.80" fill="#fff" opacity="0.92"/><circle cx="597.8" cy="364.9" r="1.68" fill="#fff" opacity="0.31"/><circle cx="201.4" cy="103.6" r="0.96" fill="#fff" opacity="0.62"/><circle cx="156.4" cy="228.2" r="0.89" fill="#fff" opacity="0.31"/><circle cx="6.4" cy="317.2" r="0.98" fill="#fff" opacity="0.51"/><circle cx="44.1" cy="219.3" r="1.54" fill="#fff" opacity="0.91"/>
  
    <circle cx="760" cy="270" r="255" fill="url(#glow)"/>
    <circle cx="760" cy="270" r="150" fill="url(#planet)"/>
    <ellipse cx="707.5" cy="225" rx="45" ry="27" fill="#a7ecb0" opacity="0.5"/>
    <!-- 장미 -->
    <g transform="translate(685,132)">
      <rect x="-2" y="0" width="4" height="60" fill="#2d6a4f"/>
      <circle cx="0" cy="-2" r="21.000000000000004" fill="#ff4d6d"/>
    </g>
    <!-- 가로등 -->
    <g transform="translate(842.5,142.5)">
      <rect x="-1.5" y="0" width="3" height="75" fill="#3d3d52"/>
      <circle cx="0" cy="-2" r="15" fill="#ffd60a"/>
    </g>
    <!-- 어린왕자 -->
    <g transform="translate(760,118)">
      <ellipse cx="0" cy="-6" rx="24" ry="33" fill="#3a7d44"/>
      <circle cx="0" cy="-39" r="18" fill="#ffe0bd"/>
      <path d="M -18 -45 a 18 18 0 0 1 36 0 z" fill="#f6c453"/>
      <rect x="-15" y="-24" width="30" height="3" rx="1.5" fill="#ffd60a"/>
    </g>
  <text x="70" y="190" font-family="'Apple SD Gothic Neo','Noto Sans KR',sans-serif" font-size="62" font-weight="800" fill="url(#title)">어린왕자의</text>
  <text x="70" y="262" font-family="'Apple SD Gothic Neo','Noto Sans KR',sans-serif" font-size="62" font-weight="800" fill="url(#title)">작은 소행성</text>
  <text x="72" y="318" font-family="'Apple SD Gothic Neo','Noto Sans KR',sans-serif" font-size="26" fill="#cfc9ec">거닐고 · 꾸미고 · 그리고 · 작곡하는 힐링 게임</text>
  <text x="72" y="372" font-family="'Apple SD Gothic Neo','Noto Sans KR',sans-serif" font-size="20" fill="#ffcf56">✦ 광고 없음 · 오프라인 · 작지만 완벽한 행복</text>
</svg>