<svg xmlns="http://www.w3.org/2000/svg" width="1200" height="630" viewBox="0 0 1200 630">
  
  <defs>
    <radialGradient id="sky" cx="50%" cy="40%" r="80%">
      <stop offset="0%" stop-color="#2c2866"/>
      <stop offset="55%" stop-color="#181538"/>
      <stop offset="100%" stop-color="#0b0a1e"/>
    </radialGradient>
    <radialGradient id="planet" cx="38%" cy="32%" r="80%">
      <stop offset="0%" stop-color="#8fe39a"/>
      <stop offset="60%" stop-color="#52b06a"/>
      <stop offset="100%" stop-color="#2f7d49"/>
    </radialGradient>
    <radialGradient id="glow" cx="50%" cy="50%" r="50%">
      <stop offset="0%" stop-color="#ffcf56" stop-opacity="0.5"/>
      <stop offset="100%" stop-color="#ffcf56" stop-opacity="0"/>
    </radialGradient>
    <linearGradient id="title" x1="0" y1="0" x2="0" y2="1">
      <stop offset="0%" stop-color="#fff7e0"/>
      <stop offset="100%" stop-color="#ffcf56"/>
    </linearGradient>
  </defs>
  <rect width="1200" height="630" fill="url(#sky)"/>
  <circle cx="518.7" cy="281.6" r="0.75" fill="#fff" opacity="0.57"/><circle cx="572.1" cy="562.0" r="1.69" fill="#fff" opacity="0.54"/><circle cx="531.4" cy="489.1" r="0.60" fill="#fff" opacity="0.54"/><circle cx="735.9" cy="214.2" r="0.46" fill="#fff" opacity="0.94"/><circle cx="247.7" cy="349.2" r="1.62" fill="#fff" opacity="0.34"/><circle cx="586.4" cy="145.5" r="1.18" fill="#fff" opacity="0.63"/><circle cx="117.4" cy="421.3" r="1.59" fill="#fff" opacity="0.93"/><circle cx="778.6" cy="371.1" r="0.59" fill="#fff" opacity="0.53"/><circle cx="458.1" cy="196.2" r="1.32" fill="#fff" opacity="0.60"/><circle cx="466.4" cy="584.2" r="1.23" fill="#fff" opacity="0.83"/><circle cx="377.3" cy="544.8" r="1.77" fill="#fff" opacity="0.86"/><circle cx="768.5" cy="80.5" r="1.05" fill="#fff" opacity="0.34"/><circle cx="121.8" cy="456.2" r="0.93" fill="#fff" opacity="0.85"/><circle cx="335.8" cy="135.1" r="1.35" fill="#fff" opacity="0.89"/><circle cx="42.2" cy="15.5" r="0.49" fill="#fff" opacity="0.45"/><circle cx="722.4" cy="473.7" r="0.74" fill="#fff" opacity="0.98"/><circle cx="257.2" cy="567.8" r="1.85" fill="#fff" opacity="0.48"/><circle cx="294.3" cy="6.2" r="0.44" fill="#fff" opacity="0.83"/><circle cx="985.6" cy="454.8" r="0.96" fill="#fff" opacity="0.52"/><circle cx="269.2" cy="296.0" r="1.56" fill="#fff" opacity="0.47"/><circle cx="454.8" cy="102.0" r="1.19" fill="#fff" opacity="0.58"/><circle cx="63.5" cy="350.9" r="1.75" fill="#fff" opacity="0.55"/><circle cx="498.4" cy="461.9" r="0.84" fill="#fff" opacity="0.44"/><circle cx="836.6" cy="526.1" r="1.22" fill="#fff" opacity="0.96"/><circle cx="554.0" cy="31.1" r="1.39" fill="#fff" opacity="0.30"/><circle cx="816.0" cy="17.6" r="1.43" fill="#fff" opacity="0.75"/><circle cx="319.8" cy="321.9" r="1.66" fill="#fff" opacity="0.46"/><circle cx="710.7" cy="280.9" r="1.05" fill="#fff" opacity="0.74"/><circle cx="1092.6" cy="10.4" r="1.48" fill="#fff" opacity="0.59"/><circle cx="889.5" cy="382.6" r="1.59" fill="#fff" opacity="0.71"/><circle cx="786.8" cy="524.8" r="1.05" fill="#fff" opacity="0.90"/><circle cx="492.3" cy="36.5" r="0.62" fill="#fff" opacity="0.47"/><circle cx="785.1" cy="45.0" r="1.47" fill="#fff" opacity="0.59"/><circle cx="1155.2" cy="186.6" r="1.28" fill="#fff" opacity="0.60"/><circle cx="129.6" cy="209.1" r="1.21" fill="#fff" opacity="0.45"/><circle cx="513.6" cy="42.6" r="0.60" fill="#fff" opacity="0.91"/><circle cx="1173.6" cy="388.6" r="1.74" fill="#fff" opacity="0.61"/><circle cx="634.1" cy="191.5" r="0.93" fill="#fff" opacity="0.40"/><circle cx="351.1" cy="420.8" r="1.07" fill="#fff" opacity="0.73"/><circle cx="50.5" cy="515.7" r="1.42" fill="#fff" opacity="0.60"/><circle cx="998.2" cy="378.9" r="1.53" fill="#fff" opacity="0.86"/><circle cx="320.3" cy="223.0" r="1.15" fill="#fff" opacity="0.84"/><circle cx="1058.3" cy="135.8" r="1.23" fill="#fff" opacity="0.81"/><circle cx="790.3" cy="441.9" r="0.77" fill="#fff" opacity="0.81"/><circle cx="923.3" cy="124.1" r="1.29" fill="#fff" opacity="0.92"/><circle cx="839.3" cy="479.2" r="1.10" fill="#fff" opacity="0.97"/><circle cx="682.0" cy="72.3" r="1.51" fill="#fff" opacity="0.90"/><circle cx="212.2" cy="591.5" r="0.54" fill="#fff" opacity="0.73"/><circle cx="680.5" cy="530.1" r="1.21" fill="#fff" opacity="0.70"/><circle cx="147.6" cy="528.5" r="0.85" fill="#fff" opacity="0.66"/><circle cx="1086.9" cy="507.7" r="1.22" fill="#fff" opacity="0.61"/><circle cx="653.5" cy="407.5" r="0.52" fill="#fff" opacity="0.68"/><circle cx="934.2" cy="504.3" r="1.37" fill="#fff" opacity="0.85"/><circle cx="731.1" cy="104.4" r="1.04" fill="#fff" opacity="0.42"/><circle cx="519.9" cy="256.7" r="0.67" fill="#fff" opacity="0.87"/><circle cx="750.5" cy="357.6" r="0.68" fill="#fff" opacity="0.38"/><circle cx="1088.1" cy="390.1" r="1.23" fill="#fff" opacity="0.91"/><circle cx="570.7" cy="248.4" r="0.80" fill="#fff" opacity="0.36"/><circle cx="1042.6" cy="403.5" r="1.04" fill="#fff" opacity="0.39"/><circle cx="23.6" cy="195.6" r="0.32" fill="#fff" opacity="0.35"/><circle cx="503.2" cy="122.8" r="1.12" fill="#fff" opacity="0.55"/><circle cx="447.7" cy="50.3" r="0.48" fill="#fff" opacity="0.46"/><circle cx="77.7" cy="621.0" r="1.20" fill="#fff" opacity="0.77"/><circle cx="524.9" cy="479.8" r="1.27" fill="#fff" opacity="0.60"/><circle cx="346.0" cy="75.2" r="1.79" fill="#fff" opacity="0.84"/><circle cx="121.3" cy="321.1" r="0.91" fill="#fff" opacity="0.69"/><circle cx="843.7" cy="435.2" r="1.17" fill="#fff" opacity="0.48"/><circle cx="939.4" cy="81.2" r="1.25" fill="#fff" opacity="0.94"/><circle cx="471.7" cy="519.1" r="1.88" fill="#fff" opacity="0.91"/><circle cx="797.3" cy="24.0" r="1.38" fill="#fff" opacity="0.52"/><circle cx="895.0" cy="386.1" r="1.40" fill="#fff" opacity="0.61"/><circle cx="934.8" cy="266.7" r="0.93" fill="#fff" opacity="0.59"/><circle cx="3.1" cy="77.5" r="0.38" fill="#fff" opacity="0.66"/><circle cx="133.2" cy="505.3" r="1.19" fill="#fff" opacity="0.66"/><circle cx="924.5" cy="96.0" r="1.35" fill="#fff" opacity="0.45"/><circle cx="346.3" cy="325.1" r="0.56" fill="#fff" opacity="0.99"/><circle cx="728.9" cy="309.0" r="0.99" fill="#fff" opacity="0.45"/><circle cx="412.7" cy="22.9" r="0.45" fill="#fff" opacity="0.63"/><circle cx="663.2" cy="460.4" r="0.56" fill="#fff" opacity="0.51"/><circle cx="483.0" cy="108.7" r="1.65" fill="#fff" opacity="0.64"/><circle cx="631.1" cy="269.7" r="0.71" fill="#fff" opacity="0.72"/><circle cx="771.7" cy="454.3" r="1.16" fill="#fff" opacity="0.40"/><circle cx="224.7" cy="545.5" r="0.58" fill="#fff" opacity="0.85"/><circle cx="118.8" cy="50.1" r="0.88" fill="#fff" opacity="0.84"/><circle cx="742.8" cy="143.9" r="1.64" fill="#fff" opacity="0.48"/><circle cx="449.8" cy="121.2" r="0.82" fill="#fff" opacity="0.64"/><circle cx="647.9" cy="47.4" r="0.58" fill="#fff" opacity="0.95"/><circle cx="827.3" cy="124.8" r="0.83" fill="#fff" opacity="0.44"/><circle cx="86.7" cy="165.9" r="1.75" fill="#fff" opacity="0.86"/><circle cx="1088.7" cy="517.1" r="0.35" fill="#fff" opacity="0.33"/><circle cx="468.2" cy="477.0" r="1.71" fill="#fff" opacity="0.77"/><circle cx="148.0" cy="470.4" r="0.40" fill="#fff" opacity="0.40"/><circle cx="683.4" cy="374.1" r="0.58" fill="#fff" opacity="0.97"/><circle cx="1029.7" cy="584.2" r="0.78" fill="#fff" opacity="0.51"/><circle cx="1168.2" cy="480.3" r="0.59" fill="#fff" opacity="0.47"/><circle cx="549.3" cy="499.6" r="1.06" fill="#fff" opacity="0.69"/><circle cx="641.6" cy="299.1" r="0.67" fill="#fff" opacity="0.61"/><circle cx="827.0" cy="343.8" r="1.26" fill="#fff" opacity="0.33"/><circle cx="1112.6" cy="246.2" r="1.67" fill="#fff" opacity="0.56"/><circle cx="1103.4" cy="336.9" r="0.46" fill="#fff" opacity="0.78"/><circle cx="136.0" cy="625.9" r="0.34" fill="#fff" opacity="0.53"/><circle cx="694.7" cy="346.8" r="1.22" fill="#fff" opacity="0.54"/><circle cx="946.6" cy="235.5" r="1.76" fill="#fff" opacity="0.44"/><circle cx="567.2" cy="400.3" r="1.57" fill="#fff" opacity="0.98"/><circle cx="213.7" cy="339.2" r="1.54" fill="#fff" opacity="0.89"/><circle cx="633.3" cy="425.3" r="0.96" fill="#fff" opacity="0.43"/><circle cx="313.8" cy="445.7" r="1.33" fill="#fff" opacity="0.41"/><circle cx="560.5" cy="177.8" r="0.67" fill="#fff" opacity="0.70"/><circle cx="36.6" cy="107.5" r="1.24" fill="#fff" opacity="0.63"/><circle cx="149.3" cy="165.4" r="1.18" fill="#fff" opacity="0.78"/><circle cx="1100.5" cy="485.2" r="0.73" fill="#fff" opacity="0.51"/><circle cx="880.7" cy="538.1" r="1.45" fill="#fff" opacity="0.90"/><circle cx="212.9" cy="52.7" r="0.71" fill="#fff" opacity="0.57"/><circle cx="883.7" cy="311.5" r="0.81" fill="#fff" opacity="0.58"/><circle cx="957.2" cy="76.9" r="1.78" fill="#fff" opacity="0.85"/><circle cx="683.2" cy="436.8" r="1.79" fill="#fff" opacity="0.42"/><circle cx="911.0" cy="79.9" r="1.54" fill="#fff" opacity="0.76"/><circle cx="522.4" cy="449.5" r="1.63" fill="#fff" opacity="0.84"/><circle cx="90.6" cy="222.4" r="0.59" fill="#fff" opacity="0.88"/><circle cx="455.1" cy="164.5" r="1.31" fill="#fff" opacity="0.45"/><circle cx="484.4" cy="63.9" r="0.93" fill="#fff" opacity="0.91"/><circle cx="308.4" cy="119.1" r="1.09" fill="#fff" opacity="0.76"/><circle cx="873.5" cy="604.9" r="1.29" fill="#fff" opacity="0.85"/><circle cx="766.7" cy="308.6" r="0.56" fill="#fff" opacity="0.53"/><circle cx="270.6" cy="136.6" r="0.87" fill="#fff" opacity="0.67"/><circle cx="539.5" cy="127.8" r="1.85" fill="#fff" opacity="0.50"/><circle cx="98.5" cy="54.1" r="0.62" fill="#fff" opacity="0.92"/><circle cx="482.4" cy="115.5" r="0.92" fill="#fff" opacity="0.98"/><circle cx="743.2" cy="532.6" r="0.94" fill="#fff" opacity="0.50"/><circle cx="523.0" cy="298.4" r="0.50" fill="#fff" opacity="0.55"/><circle cx="105.4" cy="336.9" r="1.76" fill="#fff" opacity="0.76"/><circle cx="1168.2" cy="303.3" r="0.51" fill="#fff" opacity="0.80"/><circle cx="442.8" cy="91.0" r="1.24" fill="#fff" opacity="0.68"/><circle cx="475.1" cy="212.3" r="1.04" fill="#fff" opacity="0.47"/><circle cx="131.4" cy="361.0" r="1.54" fill="#fff" opacity="0.88"/><circle cx="945.6" cy="304.3" r="1.49" fill="#fff" opacity="0.48"/><circle cx="1182.5" cy="6.1" r="0.61" fill="#fff" opacity="0.69"/><circle cx="412.1" cy="376.3" r="0.92" fill="#fff" opacity="0.71"/><circle cx="934.3" cy="434.9" r="1.18" fill="#fff" opacity="0.52"/><circle cx="218.8" cy="625.3" r="1.47" fill="#fff" opacity="0.82"/><circle cx="418.9" cy="143.7" r="1.31" fill="#fff" opacity="0.33"/><circle cx="1157.5" cy="96.0" r="1.30" fill="#fff" opacity="0.41"/><circle cx="113.0" cy="367.2" r="1.55" fill="#fff" opacity="0.63"/><circle cx="781.4" cy="174.5" r="0.95" fill="#fff" opacity="0.90"/><circle cx="76.3" cy="382.9" r="1.39" fill="#fff" opacity="0.56"/><circle cx="827.1" cy="499.2" r="0.71" fill="#fff" opacity="0.92"/><circle cx="1013.4" cy="1.0" r="1.56" fill="#fff" opacity="0.92"/><circle cx="6.9" cy="448.4" r="0.78" fill="#fff" opacity="0.86"/><circle cx="1107.9" cy="47.1" r="1.36" fill="#fff" opacity="0.90"/><circle cx="741.0" cy="152.8" r="1.36" fill="#fff" opacity="0.92"/><circle cx="929.8" cy="495.3" r="1.02" fill="#fff" opacity="0.84"/><circle cx="781.4" cy="393.5" r="1.25" fill="#fff" opacity="0.94"/><circle cx="332.3" cy="504.1" r="1.10" fill="#fff" opacity="0.48"/><circle cx="611.6" cy="338.3" r="1.48" fill="#fff" opacity="0.75"/><circle cx="1091.7" cy="52.4" r="0.38" fill="#fff" opacity="0.52"/><circle cx="435.5" cy="536.1" r="1.00" fill="#fff" opacity="0.60"/><circle cx="706.7" cy="93.2" r="0.55" fill="#fff" opacity="0.38"/><circle cx="1048.8" cy="231.2" r="0.59" fill="#fff" opacity="0.41"/><circle cx="386.3" cy="476.0" r="1.41" fill="#fff" opacity="0.54"/><circle cx="413.8" cy="337.4" r="0.47" fill="#fff" opacity="0.51"/>
  
    <circle cx="600" cy="400" r="297.5" fill="url(#glow)"/>
    <circle cx="600" cy="400" r="175" fill="url(#planet)"/>
    <ellipse cx="538.75" cy="347.5" rx="52.5" ry="31.5" fill="#a7ecb0" opacity="0.5"/>
    <!-- 장미 -->
    <g transform="translate(512.5,239)">
      <rect x="-2" y="0" width="4" height="70" fill="#2d6a4f"/>
      <circle cx="0" cy="-2" r="24.500000000000004" fill="#ff4d6d"/>
    </g>
    <!-- 가로등 -->
    <g transform="translate(696.25,251.25)">
      <rect x="-1.5" y="0" width="3" height="87.5" fill="#3d3d52"/>
      <circle cx="0" cy="-2" r="17.5" fill="#ffd60a"/>
    </g>
    <!-- 어린왕자 -->
    <g transform="translate(600,223)">
      <ellipse cx="0" cy="-6" rx="28" ry="38.5" fill="#3a7d44"/>
      <circle cx="0" cy="-44.5" r="21" fill="#ffe0bd"/>
      <path d="M -21 -51.5 a 21 21 0 0 1 42 0 z" fill="#f6c453"/>
      <rect x="-17.5" y="-27" width="35" height="3" rx="1.5" fill="#ffd60a"/>
    </g>
  <text x="600" y="150" text-anchor="middle" font-family="'Apple SD Gothic Neo','Noto Sans KR',sans-serif" font-size="64" font-weight="800" fill="url(#title)">나만의 작은 소행성</text>
  <text x="600" y="200" text-anchor="middle" font-family="'Apple SD Gothic Neo','Noto Sans KR',sans-serif" font-size="26" fill="#cfc9ec">B-612 · 어린왕자의 별에서 천천히 쉬어가요</text>
</svg>