<svg xmlns="http://www.w3.org/2000/svg" width="1080" height="1920" viewBox="0 0 1080 1920">
  
  <defs>
    <radialGradient id="sky" cx="50%" cy="40%" r="80%">
      <stop offset="0%" stop-color="#2c2866"/>
      <stop offset="55%" stop-color="#181538"/>
      <stop offset="100%" stop-color="#0b0a1e"/>
    </radialGradient>
    <radialGradient id="planet" cx="38%" cy="32%" r="80%">
      <stop offset="0%" stop-color="#8fe39a"/>
      <stop offset="60%" stop-color="#52b06a"/>
      <stop offset="100%" stop-color="#2f7d49"/>
    </radialGradient>
    <radialGradient id="glow" cx="50%" cy="50%" r="50%">
      <stop offset="0%" stop-color="#ffcf56" stop-opacity="0.5"/>
      <stop offset="100%" stop-color="#ffcf56" stop-opacity="0"/>
    </radialGradient>
    <linearGradient id="title" x1="0" y1="0" x2="0" y2="1">
      <stop offset="0%" stop-color="#fff7e0"/>
      <stop offset="100%" stop-color="#ffcf56"/>
    </linearGradient>
  </defs>
  <rect width="1080" height="1920" fill="url(#sky)"/>
  <circle cx="649.2" cy="860.7" r="1.66" fill="#fff" opacity="0.77"/><circle cx="188.8" cy="1011.1" r="0.74" fill="#fff" opacity="0.74"/><circle cx="934.7" cy="906.8" r="0.70" fill="#fff" opacity="0.92"/><circle cx="805.4" cy="589.4" r="0.62" fill="#fff" opacity="0.65"/><circle cx="741.5" cy="1172.4" r="0.31" fill="#fff" opacity="0.63"/><circle cx="904.3" cy="98.3" r="1.25" fill="#fff" opacity="0.32"/><circle cx="288.3" cy="118.6" r="0.60" fill="#fff" opacity="0.85"/><circle cx="572.8" cy="52.1" r="0.58" fill="#fff" opacity="0.89"/><circle cx="526.8" cy="1553.3" r="0.81" fill="#fff" opacity="0.61"/><circle cx="40.4" cy="98.7" r="1.19" fill="#fff" opacity="0.72"/><circle cx="264.8" cy="1239.7" r="0.64" fill="#fff" opacity="0.51"/><circle cx="797.7" cy="1648.7" r="1.11" fill="#fff" opacity="0.44"/><circle cx="306.9" cy="562.5" r="0.42" fill="#fff" opacity="0.76"/><circle cx="735.2" cy="1330.7" r="1.78" fill="#fff" opacity="0.36"/><circle cx="1019.2" cy="827.8" r="1.81" fill="#fff" opacity="0.40"/><circle cx="119.8" cy="30.4" r="0.88" fill="#fff" opacity="0.64"/><circle cx="660.9" cy="1727.2" r="0.42" fill="#fff" opacity="0.80"/><circle cx="1009.7" cy="534.2" r="1.43" fill="#fff" opacity="0.43"/><circle cx="561.9" cy="1578.0" r="0.49" fill="#fff" opacity="1.00"/><circle cx="607.8" cy="1759.0" r="0.99" fill="#fff" opacity="0.70"/><circle cx="363.9" cy="1144.8" r="0.82" fill="#fff" opacity="0.81"/><circle cx="318.8" cy="863.5" r="1.65" fill="#fff" opacity="0.79"/><circle cx="1073.5" cy="1709.2" r="0.99" fill="#fff" opacity="0.68"/><circle cx="319.6" cy="193.7" r="1.41" fill="#fff" opacity="0.52"/><circle cx="848.8" cy="1737.2" r="0.45" fill="#fff" opacity="0.63"/><circle cx="887.7" cy="249.6" r="1.86" fill="#fff" opacity="0.42"/><circle cx="766.2" cy="1343.4" r="0.66" fill="#fff" opacity="0.59"/><circle cx="176.5" cy="1257.0" r="0.84" fill="#fff" opacity="0.44"/><circle cx="679.2" cy="1702.8" r="0.82" fill="#fff" opacity="0.85"/><circle cx="424.4" cy="252.3" r="1.68" fill="#fff" opacity="0.56"/><circle cx="10.3" cy="1415.9" r="1.32" fill="#fff" opacity="0.91"/><circle cx="980.8" cy="401.3" r="1.27" fill="#fff" opacity="0.64"/><circle cx="198.7" cy="91.2" r="1.43" fill="#fff" opacity="0.80"/><circle cx="314.8" cy="528.9" r="0.84" fill="#fff" opacity="0.32"/><circle cx="238.6" cy="1907.6" r="1.22" fill="#fff" opacity="0.99"/><circle cx="177.0" cy="328.0" r="1.20" fill="#fff" opacity="0.50"/><circle cx="426.2" cy="834.1" r="0.97" fill="#fff" opacity="0.78"/><circle cx="430.4" cy="645.4" r="1.73" fill="#fff" opacity="0.53"/><circle cx="534.9" cy="1172.9" r="1.17" fill="#fff" opacity="0.71"/><circle cx="254.2" cy="624.7" r="0.78" fill="#fff" opacity="0.52"/><circle cx="722.8" cy="424.1" r="0.57" fill="#fff" opacity="0.79"/><circle cx="339.4" cy="239.8" r="0.80" fill="#fff" opacity="0.33"/><circle cx="623.7" cy="398.8" r="1.07" fill="#fff" opacity="0.57"/><circle cx="769.0" cy="1752.2" r="1.60" fill="#fff" opacity="0.61"/><circle cx="166.5" cy="1665.9" r="1.14" fill="#fff" opacity="0.89"/><circle cx="966.1" cy="864.2" r="0.53" fill="#fff" opacity="0.73"/><circle cx="872.2" cy="400.1" r="0.92" fill="#fff" opacity="0.68"/><circle cx="1063.3" cy="944.6" r="1.68" fill="#fff" opacity="0.89"/><circle cx="803.1" cy="102.8" r="0.41" fill="#fff" opacity="0.42"/><circle cx="547.1" cy="1299.2" r="1.52" fill="#fff" opacity="0.99"/><circle cx="881.3" cy="1212.7" r="1.64" fill="#fff" opacity="0.90"/><circle cx="647.3" cy="674.1" r="1.02" fill="#fff" opacity="0.91"/><circle cx="735.5" cy="670.6" r="1.80" fill="#fff" opacity="0.74"/><circle cx="355.7" cy="1621.8" r="0.54" fill="#fff" opacity="0.56"/><circle cx="21.6" cy="164.2" r="1.34" fill="#fff" opacity="0.81"/><circle cx="1032.4" cy="1688.6" r="1.05" fill="#fff" opacity="0.80"/><circle cx="156.8" cy="524.4" r="0.52" fill="#fff" opacity="0.33"/><circle cx="314.3" cy="846.7" r="1.21" fill="#fff" opacity="0.80"/><circle cx="857.1" cy="1506.8" r="0.61" fill="#fff" opacity="0.77"/><circle cx="559.2" cy="851.6" r="1.05" fill="#fff" opacity="0.62"/><circle cx="459.1" cy="637.3" r="0.79" fill="#fff" opacity="0.40"/><circle cx="545.0" cy="513.4" r="1.15" fill="#fff" opacity="0.68"/><circle cx="699.2" cy="839.4" r="0.52" fill="#fff" opacity="0.30"/><circle cx="160.0" cy="1811.0" r="0.41" fill="#fff" opacity="0.91"/><circle cx="464.8" cy="964.7" r="0.46" fill="#fff" opacity="0.88"/><circle cx="61.3" cy="711.6" r="0.67" fill="#fff" opacity="0.79"/><circle cx="609.2" cy="181.7" r="1.85" fill="#fff" opacity="0.83"/><circle cx="714.1" cy="1529.1" r="1.18" fill="#fff" opacity="0.86"/><circle cx="569.2" cy="339.5" r="0.42" fill="#fff" opacity="0.37"/><circle cx="64.3" cy="504.5" r="1.38" fill="#fff" opacity="0.77"/><circle cx="605.9" cy="1875.2" r="0.34" fill="#fff" opacity="0.58"/><circle cx="364.9" cy="545.5" r="1.63" fill="#fff" opacity="0.68"/><circle cx="221.4" cy="1813.1" r="1.82" fill="#fff" opacity="0.49"/><circle cx="559.8" cy="1651.2" r="1.80" fill="#fff" opacity="0.78"/><circle cx="614.0" cy="1555.0" r="0.80" fill="#fff" opacity="0.65"/><circle cx="810.3" cy="1055.5" r="1.40" fill="#fff" opacity="0.69"/><circle cx="589.7" cy="1856.6" r="1.87" fill="#fff" opacity="0.84"/><circle cx="333.4" cy="1212.6" r="1.37" fill="#fff" opacity="0.91"/><circle cx="417.8" cy="1685.6" r="0.81" fill="#fff" opacity="0.92"/><circle cx="446.3" cy="652.1" r="1.15" fill="#fff" opacity="0.89"/><circle cx="667.3" cy="1666.1" r="1.41" fill="#fff" opacity="0.41"/><circle cx="309.7" cy="1846.0" r="1.08" fill="#fff" opacity="0.49"/><circle cx="681.2" cy="1480.7" r="1.48" fill="#fff" opacity="0.80"/><circle cx="200.8" cy="1625.7" r="1.74" fill="#fff" opacity="0.68"/><circle cx="509.0" cy="139.2" r="1.10" fill="#fff" opacity="0.93"/><circle cx="729.3" cy="808.6" r="1.01" fill="#fff" opacity="0.73"/><circle cx="774.7" cy="994.3" r="0.37" fill="#fff" opacity="0.42"/><circle cx="105.4" cy="232.6" r="0.90" fill="#fff" opacity="0.88"/><circle cx="904.9" cy="1312.0" r="0.44" fill="#fff" opacity="0.32"/><circle cx="291.9" cy="1344.0" r="0.73" fill="#fff" opacity="0.90"/><circle cx="676.2" cy="1745.2" r="1.72" fill="#fff" opacity="0.54"/><circle cx="107.8" cy="1204.3" r="0.68" fill="#fff" opacity="0.64"/><circle cx="301.0" cy="499.4" r="1.45" fill="#fff" opacity="0.66"/><circle cx="527.2" cy="1136.5" r="0.47" fill="#fff" opacity="0.85"/><circle cx="744.2" cy="1763.7" r="0.49" fill="#fff" opacity="0.34"/><circle cx="35.8" cy="653.8" r="0.68" fill="#fff" opacity="0.46"/><circle cx="1069.6" cy="1115.9" r="1.64" fill="#fff" opacity="0.54"/><circle cx="701.1" cy="61.6" r="1.48" fill="#fff" opacity="0.86"/><circle cx="406.0" cy="392.5" r="1.56" fill="#fff" opacity="0.65"/><circle cx="149.2" cy="158.4" r="1.54" fill="#fff" opacity="0.60"/><circle cx="940.0" cy="1520.9" r="1.09" fill="#fff" opacity="0.97"/><circle cx="189.5" cy="279.4" r="1.18" fill="#fff" opacity="0.77"/><circle cx="223.1" cy="1478.7" r="0.69" fill="#fff" opacity="0.39"/><circle cx="712.7" cy="1157.4" r="1.19" fill="#fff" opacity="0.44"/><circle cx="995.8" cy="1001.8" r="1.49" fill="#fff" opacity="0.33"/><circle cx="1034.1" cy="1114.3" r="0.75" fill="#fff" opacity="0.33"/><circle cx="352.4" cy="1366.9" r="1.52" fill="#fff" opacity="0.48"/><circle cx="931.8" cy="875.2" r="0.59" fill="#fff" opacity="0.75"/><circle cx="548.1" cy="361.7" r="1.66" fill="#fff" opacity="0.36"/><circle cx="147.3" cy="1910.4" r="0.64" fill="#fff" opacity="0.63"/><circle cx="549.4" cy="1189.7" r="1.08" fill="#fff" opacity="0.77"/><circle cx="171.0" cy="1879.8" r="1.63" fill="#fff" opacity="0.54"/><circle cx="221.3" cy="994.8" r="1.52" fill="#fff" opacity="0.61"/><circle cx="524.0" cy="484.2" r="1.10" fill="#fff" opacity="0.32"/><circle cx="930.6" cy="698.1" r="0.98" fill="#fff" opacity="0.48"/><circle cx="544.3" cy="78.7" r="1.37" fill="#fff" opacity="0.35"/><circle cx="973.2" cy="1465.3" r="1.35" fill="#fff" opacity="0.87"/><circle cx="58.1" cy="1126.4" r="1.18" fill="#fff" opacity="0.64"/><circle cx="553.4" cy="912.7" r="1.02" fill="#fff" opacity="0.70"/><circle cx="17.6" cy="1359.9" r="0.31" fill="#fff" opacity="0.78"/><circle cx="197.9" cy="708.5" r="1.46" fill="#fff" opacity="0.95"/><circle cx="301.3" cy="1186.8" r="1.74" fill="#fff" opacity="0.62"/><circle cx="49.2" cy="1089.5" r="1.09" fill="#fff" opacity="0.61"/><circle cx="505.8" cy="1447.3" r="0.49" fill="#fff" opacity="0.80"/><circle cx="642.7" cy="1815.5" r="1.63" fill="#fff" opacity="0.64"/><circle cx="8.9" cy="1748.2" r="0.40" fill="#fff" opacity="0.66"/><circle cx="525.7" cy="1309.2" r="1.19" fill="#fff" opacity="0.73"/><circle cx="920.1" cy="1275.4" r="1.87" fill="#fff" opacity="0.99"/><circle cx="1044.5" cy="1558.4" r="1.83" fill="#fff" opacity="0.87"/><circle cx="172.1" cy="171.4" r="1.89" fill="#fff" opacity="0.32"/><circle cx="530.4" cy="1678.6" r="1.39" fill="#fff" opacity="0.84"/><circle cx="353.8" cy="1613.9" r="1.03" fill="#fff" opacity="0.95"/><circle cx="708.2" cy="481.0" r="0.55" fill="#fff" opacity="0.56"/><circle cx="782.6" cy="96.8" r="0.52" fill="#fff" opacity="0.47"/><circle cx="670.6" cy="718.6" r="1.32" fill="#fff" opacity="0.98"/><circle cx="442.3" cy="1521.7" r="1.48" fill="#fff" opacity="0.31"/><circle cx="738.9" cy="1680.5" r="0.71" fill="#fff" opacity="0.71"/><circle cx="971.4" cy="896.5" r="0.91" fill="#fff" opacity="0.89"/><circle cx="681.7" cy="605.0" r="1.04" fill="#fff" opacity="0.67"/><circle cx="1075.5" cy="331.5" r="1.25" fill="#fff" opacity="0.35"/><circle cx="695.6" cy="1527.3" r="0.99" fill="#fff" opacity="0.72"/><circle cx="901.6" cy="752.5" r="1.24" fill="#fff" opacity="0.42"/><circle cx="1054.7" cy="348.0" r="1.39" fill="#fff" opacity="0.80"/><circle cx="612.1" cy="1049.5" r="1.31" fill="#fff" opacity="0.93"/><circle cx="833.3" cy="0.3" r="0.40" fill="#fff" opacity="0.37"/><circle cx="982.4" cy="0.1" r="0.36" fill="#fff" opacity="0.67"/><circle cx="62.1" cy="1430.6" r="1.31" fill="#fff" opacity="0.30"/><circle cx="438.2" cy="1585.9" r="0.85" fill="#fff" opacity="0.44"/><circle cx="802.0" cy="1253.1" r="0.38" fill="#fff" opacity="0.74"/><circle cx="636.8" cy="1634.0" r="1.23" fill="#fff" opacity="0.59"/><circle cx="635.2" cy="789.5" r="1.24" fill="#fff" opacity="0.44"/><circle cx="146.0" cy="1358.0" r="1.47" fill="#fff" opacity="0.50"/><circle cx="997.2" cy="1811.2" r="0.99" fill="#fff" opacity="0.72"/><circle cx="365.3" cy="1279.1" r="1.87" fill="#fff" opacity="0.92"/><circle cx="748.6" cy="659.2" r="1.75" fill="#fff" opacity="0.66"/><circle cx="990.9" cy="447.9" r="0.54" fill="#fff" opacity="0.52"/><circle cx="1061.3" cy="971.1" r="1.86" fill="#fff" opacity="0.31"/><circle cx="703.9" cy="1158.7" r="1.88" fill="#fff" opacity="0.48"/><circle cx="1040.2" cy="429.9" r="1.81" fill="#fff" opacity="0.51"/><circle cx="553.5" cy="748.5" r="0.65" fill="#fff" opacity="0.50"/><circle cx="1019.8" cy="1203.9" r="0.81" fill="#fff" opacity="0.66"/><circle cx="393.7" cy="856.2" r="0.58" fill="#fff" opacity="0.70"/><circle cx="971.8" cy="1265.5" r="1.16" fill="#fff" opacity="0.92"/><circle cx="634.3" cy="1640.0" r="1.01" fill="#fff" opacity="0.74"/><circle cx="491.2" cy="1129.1" r="1.36" fill="#fff" opacity="0.74"/><circle cx="441.5" cy="332.3" r="0.31" fill="#fff" opacity="0.80"/><circle cx="412.7" cy="627.0" r="0.33" fill="#fff" opacity="0.39"/><circle cx="701.0" cy="539.8" r="0.37" fill="#fff" opacity="0.62"/><circle cx="755.7" cy="262.3" r="1.43" fill="#fff" opacity="0.45"/><circle cx="301.1" cy="1191.7" r="0.84" fill="#fff" opacity="0.54"/><circle cx="665.2" cy="898.2" r="1.61" fill="#fff" opacity="0.36"/><circle cx="215.4" cy="663.8" r="1.72" fill="#fff" opacity="0.90"/><circle cx="1029.1" cy="894.3" r="0.58" fill="#fff" opacity="0.76"/><circle cx="661.0" cy="1443.9" r="1.80" fill="#fff" opacity="0.58"/><circle cx="406.2" cy="311.8" r="1.74" fill="#fff" opacity="0.70"/><circle cx="187.7" cy="66.8" r="1.67" fill="#fff" opacity="0.37"/><circle cx="577.3" cy="1003.7" r="1.26" fill="#fff" opacity="0.98"/><circle cx="567.9" cy="1296.1" r="1.14" fill="#fff" opacity="0.93"/><circle cx="955.0" cy="168.9" r="0.66" fill="#fff" opacity="0.94"/><circle cx="419.0" cy="1350.3" r="1.16" fill="#fff" opacity="0.61"/><circle cx="350.4" cy="713.9" r="0.84" fill="#fff" opacity="0.75"/><circle cx="941.3" cy="1692.1" r="0.68" fill="#fff" opacity="0.71"/><circle cx="531.9" cy="992.1" r="1.47" fill="#fff" opacity="0.70"/><circle cx="441.4" cy="1914.4" r="0.65" fill="#fff" opacity="0.60"/><circle cx="45.7" cy="296.8" r="0.38" fill="#fff" opacity="0.38"/><circle cx="366.1" cy="1470.2" r="1.14" fill="#fff" opacity="0.62"/><circle cx="409.4" cy="1914.3" r="1.46" fill="#fff" opacity="0.61"/><circle cx="376.4" cy="1438.8" r="0.77" fill="#fff" opacity="0.71"/><circle cx="285.1" cy="216.5" r="1.65" fill="#fff" opacity="0.56"/><circle cx="127.4" cy="1820.7" r="0.37" fill="#fff" opacity="0.83"/><circle cx="621.1" cy="125.7" r="1.29" fill="#fff" opacity="0.91"/><circle cx="204.9" cy="1618.1" r="0.65" fill="#fff" opacity="0.98"/><circle cx="487.1" cy="801.5" r="0.33" fill="#fff" opacity="0.58"/><circle cx="56.7" cy="735.0" r="1.07" fill="#fff" opacity="0.58"/><circle cx="17.7" cy="1847.6" r="1.53" fill="#fff" opacity="0.46"/><circle cx="134.4" cy="364.8" r="1.40" fill="#fff" opacity="0.85"/><circle cx="1053.9" cy="1635.9" r="1.72" fill="#fff" opacity="0.47"/><circle cx="762.9" cy="977.4" r="1.62" fill="#fff" opacity="0.45"/><circle cx="1.8" cy="1615.7" r="1.75" fill="#fff" opacity="0.95"/><circle cx="244.6" cy="260.1" r="0.32" fill="#fff" opacity="0.97"/>
  
    <circle cx="540" cy="1050" r="612" fill="url(#glow)"/>
    <circle cx="540" cy="1050" r="360" fill="url(#planet)"/>
    <ellipse cx="414" cy="942" rx="108" ry="64.8" fill="#a7ecb0" opacity="0.5"/>
    <!-- 장미 -->
    <g transform="translate(360,718.8)">
      <rect x="-2" y="0" width="4" height="144" fill="#2d6a4f"/>
      <circle cx="0" cy="-2" r="50.400000000000006" fill="#ff4d6d"/>
    </g>
    <!-- 가로등 -->
    <g transform="translate(738,744)">
      <rect x="-1.5" y="0" width="3" height="180" fill="#3d3d52"/>
      <circle cx="0" cy="-2" r="36" fill="#ffd60a"/>
    </g>
    <!-- 어린왕자 -->
    <g transform="translate(540,688)">
      <ellipse cx="0" cy="-6" rx="57.6" ry="79.2" fill="#3a7d44"/>
      <circle cx="0" cy="-85.2" r="43.199999999999996" fill="#ffe0bd"/>
      <path d="M -43.199999999999996 -99.60000000000001 a 43.199999999999996 43.199999999999996 0 0 1 86.39999999999999 0 z" fill="#f6c453"/>
      <rect x="-36" y="-49.199999999999996" width="72" height="3" rx="1.5" fill="#ffd60a"/>
    </g>
  <text x="540" y="240" text-anchor="middle" font-family="'Apple SD Gothic Neo','Noto Sans KR',sans-serif" font-size="76" font-weight="800" fill="url(#title)">꽃을 심고</text>
  <text x="540" y="340" text-anchor="middle" font-family="'Apple SD Gothic Neo','Noto Sans KR',sans-serif" font-size="76" font-weight="800" fill="url(#title)">별을 가꿔요</text>
  <rect x="120" y="1560" width="840" height="150" rx="40" fill="#fdf6ec" opacity="0.95"/>
  <text x="540" y="1655" text-anchor="middle" font-family="'Apple SD Gothic Neo','Noto Sans KR',sans-serif" font-size="42" font-weight="700" fill="#2b2b40">AI로 그림 그리고 · 음악도 짓는 힐링 게임</text>
</svg>